<?xml version="1.0" encoding="UTF-8"?>
<svg version="1.1" xmlns="http://www.w3.org/2000/svg" width="512" height="512">
<path d="M0 0 C35.64 0 71.28 0 108 0 C108.99 7.26 109.98 14.52 111 22 C115.57467974 40.18714141 122.2772475 56.94198832 135 71 C135.66128906 71.80179687 136.32257813 72.60359375 137.00390625 73.4296875 C155.5775111 95.3896402 182.76557398 107.20956257 211 110 C237.00391252 112.08781704 264.832216 104.16226964 285.4375 88 C286.97166322 86.68202617 288.49264349 85.34855039 290 84 C291.25876953 82.93652344 291.25876953 82.93652344 292.54296875 81.8515625 C317.68605515 60.16992975 325.456089 31.80737698 330 0 C365.64 0 401.28 0 438 0 C438 31 438 31 434 37 C430.30246334 40.58396045 426.49432744 42.10969446 421.625 43.5 C420.93180664 43.7064917 420.23861328 43.9129834 419.52441406 44.12573242 C417.35367547 44.76570232 415.17809009 45.38555445 413 46 C412.29262695 46.20189941 411.58525391 46.40379883 410.85644531 46.61181641 C398.91024918 50 398.91024918 50 394 50 C393.86851562 51.42892578 393.86851562 51.42892578 393.734375 52.88671875 C393.0248988 57.82204354 391.14284085 62.22744609 389.25 66.8125 C388.89236572 67.6981665 388.53473145 68.58383301 388.16625977 69.49633789 C385.97819838 74.84849075 383.63926975 80.02872423 380.71484375 85.02734375 C379.72882914 87.74831302 380.23629447 89.20939477 381 92 C382.04503133 94.04871126 383.16855574 96.05823268 384.34375 98.03515625 C384.67290405 98.59569199 385.00205811 99.15622772 385.34118652 99.73374939 C386.38739816 101.5140731 387.44279724 103.28868442 388.5 105.0625 C389.89145378 107.4041143 391.27542091 109.74971468 392.65625 112.09765625 C393.58147461 113.65238647 393.58147461 113.65238647 394.52539062 115.23852539 C397.00256023 119.87747662 397.43858243 123.73701086 397 129 C394.13461991 136.05811572 389.91473218 140.67167228 384.54296875 145.98828125 C383.72178055 146.81329636 382.90059235 147.63831146 382.05451965 148.48832703 C380.32372974 150.22182763 378.58792327 151.95033245 376.84741211 153.67407227 C374.19233245 156.30770658 371.5592996 158.96203338 368.92773438 161.61914062 C367.2382604 163.30597172 365.54754621 164.99156175 363.85546875 166.67578125 C363.07294235 167.46640457 362.29041595 168.25702789 361.48417664 169.0716095 C356.0085306 174.45487506 351.8708634 177.60719317 344.03515625 178.40234375 C339.61260712 178.21412755 336.27922026 176.64875471 332.4375 174.5625 C331.7571167 174.2106665 331.0767334 173.85883301 330.37573242 173.49633789 C326.76977352 171.60045564 323.26564532 169.57837225 319.8046875 167.4296875 C319.13381104 167.01388428 318.46293457 166.59808105 317.77172852 166.16967773 C316.49143228 165.36448707 315.22047645 164.54419655 313.96069336 163.70727539 C311.47524202 162.12354843 309.61841283 161.00305641 306.62890625 160.98828125 C301.79705551 162.84778993 297.21390162 165.19860028 292.59301758 167.52441406 C288.63363435 169.46398061 284.97996961 171.15812994 280.62890625 171.96875 C276.57136334 172.73693752 273.45236778 173.58069368 270 176 C266.83316527 181.63530048 265.73594497 188.15221158 264.51025391 194.43457031 C262.83955744 202.83441648 260.92376789 211.37443859 254 217 C250.60608283 219.0945369 247.90510615 219.26246225 243.94970703 219.29052734 C242.72808868 219.30328705 241.50647034 219.31604675 240.24783325 219.32919312 C238.9311264 219.33141876 237.61441956 219.33364441 236.2578125 219.3359375 C234.88784649 219.34236821 233.51788185 219.34909677 232.1479187 219.35610962 C229.27810483 219.36807331 226.40841126 219.37179141 223.53857422 219.37060547 C219.87103907 219.37040237 216.20427963 219.3976977 212.53692818 219.43214989 C209.70751441 219.45444839 206.87828642 219.45844212 204.04879379 219.45738602 C202.04249074 219.46087716 200.03624568 219.48252229 198.03005981 219.50448608 C189.5891493 219.46218773 185.96452981 218.71989458 179.84765625 212.98046875 C177.01380182 208.409156 175.83761378 203.47561621 174.4375 198.3125 C173.56610256 195.19981426 172.69417412 192.08769076 171.8034668 188.98046875 C171.28218789 187.04677904 170.82363025 185.09467123 170.44067383 183.12890625 C169.44713881 178.21536509 169.44713881 178.21536509 166.14868164 174.69555664 C163.72690628 173.70486612 161.34920287 173.01525483 158.8125 172.375 C157.00232332 171.8404027 155.19503111 171.29594962 153.390625 170.7421875 C152.48634766 170.46729492 151.58207031 170.19240234 150.65039062 169.90917969 C145.87639122 168.27152551 141.4996897 165.87636004 137.11450195 163.39990234 C133.17875869 161.26211039 131.26948357 160.73805064 127 162 C125.10890912 162.96046969 123.2561916 163.99847414 121.4375 165.08984375 C120.39335937 165.70923828 119.34921875 166.32863281 118.2734375 166.96679688 C116.65308594 167.94229492 116.65308594 167.94229492 115 168.9375 C112.85602533 170.22055883 110.71025487 171.5006228 108.5625 172.77734375 C107.61503906 173.34702881 106.66757813 173.91671387 105.69140625 174.50366211 C100.48682719 177.39724566 96.00201149 178.8754497 90 178 C82.93780258 175.14669516 78.32701729 170.91340816 73.01171875 165.54296875 C72.18670364 164.72178055 71.36168854 163.90059235 70.51167297 163.05451965 C68.77817237 161.32372974 67.04966755 159.58792327 65.32592773 157.84741211 C62.69229342 155.19233245 60.03796662 152.5592996 57.38085938 149.92773438 C55.69402828 148.2382604 54.00843825 146.54754621 52.32421875 144.85546875 C51.13828377 143.68167915 51.13828377 143.68167915 49.9283905 142.48417664 C44.61992601 137.0846153 41.60140211 132.94252495 40.4375 125.3125 C40.81949138 117.5845205 46.00517395 110.63737924 49.8828125 104.1796875 C50.38514404 103.33575439 50.88747559 102.49182129 51.4050293 101.62231445 C52.41523612 99.9348812 53.43988383 98.2559978 54.47973633 96.58666992 C54.94919678 95.80654541 55.41865723 95.0264209 55.90234375 94.22265625 C56.54417603 93.18250366 56.54417603 93.18250366 57.19897461 92.12133789 C58.45740672 88.78865987 57.52518286 86.30244682 56.23144531 83.09399414 C55.93334961 82.49707764 55.63525391 81.90016113 55.328125 81.28515625 C54.99554688 80.60541748 54.66296875 79.92567871 54.3203125 79.2253418 C53.96710938 78.511604 53.61390625 77.79786621 53.25 77.0625 C44 57.89079362 44 57.89079362 44 50 C43.11441406 49.90332031 42.22882813 49.80664062 41.31640625 49.70703125 C35.41522056 48.85933892 29.69003746 47.21958284 23.9375 45.6875 C22.77927734 45.39166016 21.62105469 45.09582031 20.42773438 44.79101562 C11.88821434 42.52002322 6.26632422 40.41186371 1 33 C-3.92160769 23.15678463 0 11.00504935 0 0 Z " fill="#000000" transform="translate(37,283)"/>
<path d="M0 0 C1.17547749 0.63288251 2.35571824 1.25695148 3.5390625 1.875 C4.19680664 2.21982422 4.85455078 2.56464844 5.53222656 2.91992188 C12.22415253 6.37361768 18.37585851 9.4439443 26 10 C26.92941406 10.06832031 27.85882813 10.13664063 28.81640625 10.20703125 C42.79080678 10.6989593 54.45362729 6.40168523 65.9921875 -1.3359375 C70.81877214 -2.93227872 76.667218 0.97084644 81 3 C91.83125147 8.80846905 100.92971293 16.58811495 106 28 C110.91856765 46.03474804 109 65.30656681 109 84 C58.18 84 7.36 84 -45 84 C-45 27.82564975 -45 27.82564975 -31.9375 13.4375 C-25.30041909 7.13740112 -9.22866097 -5.68685054 0 0 Z " fill="#000000" transform="translate(224,197)"/>
<path d="M0 0 C2.32421875 1.171875 2.32421875 1.171875 4.6875 2.75 C17.27687354 10.69821643 30.9811278 13.08240025 45.6171875 10.31640625 C52.67192716 8.27780642 61.68602512 5.31397488 67 0 C72.56903353 0.39627176 76.8657977 1.98200569 81.8125 4.5 C82.51173584 4.85529785 83.21097168 5.2105957 83.93139648 5.57666016 C94.07804767 10.94214841 103.978039 19.44211906 107.90625 30.56640625 C108 33 108 33 106.55859375 34.88671875 C105.85863281 35.48097656 105.15867188 36.07523438 104.4375 36.6875 C90.37559543 49.79231159 89.08282613 66.59195578 88 85 C44.77 85 1.54 85 -43 85 C-43 29.38686131 -43 29.38686131 -33 18 C-32.52175781 17.41734375 -32.04351562 16.8346875 -31.55078125 16.234375 C-25.23564397 9.17160182 -9.93923033 -1.51643315 0 0 Z " fill="#000000" transform="translate(80,168)"/>
<path d="M0 0 C2.32421875 1.171875 2.32421875 1.171875 4.6875 2.75 C17.27687354 10.69821643 30.9811278 13.08240025 45.6171875 10.31640625 C52.67192716 8.27780642 61.68602512 5.31397488 67 0 C72.91143765 0.3590461 77.22663742 1.63843657 82.375 4.5 C83.02275391 4.85529785 83.67050781 5.2105957 84.33789062 5.57666016 C97.43533391 13.02607489 105.26208426 22.78625279 110 37 C110 52.84 110 68.68 110 85 C66.77 85 23.54 85 -21 85 C-21.33 79.39 -21.66 73.78 -22 68 C-24.28492381 54.77149374 -28.79802109 45.73772028 -38.14453125 36.09375 C-40 34 -40 34 -41 31 C-35.20707963 15.99106996 -21.94668557 7.58170594 -7.98046875 1.06640625 C-4.9753837 -0.00880767 -3.14568018 -0.43406301 0 0 Z " fill="#000000" transform="translate(365,168)"/>
<path d="M0 0 C10.34372237 8.35690837 14.5886662 19.21897788 16.28125 32.1484375 C16.91430123 44.65119923 11.66566275 56.0601425 3.5 65.1875 C-6.35944697 74.58836804 -18.45132778 77.50459845 -31.66015625 77.27734375 C-43.16452931 76.7765036 -53.55348214 70.32285133 -61.3671875 62.109375 C-68.8083864 52.49634293 -72.10923759 41.02554399 -71 29 C-69.1079076 16.99554824 -63.79102738 6.46276732 -54 -1 C-36.005898 -11.51523967 -17.35820379 -12.41126207 0 0 Z " fill="#000000" transform="translate(141,92)"/>
<path d="M0 0 C9.97038061 8.0552778 14.89944661 18.97273581 16.28125 31.5625 C16.77668597 44.44383521 12.00797862 55.69572942 3.5 65.1875 C-6.35944697 74.58836804 -18.45132778 77.50459845 -31.66015625 77.27734375 C-43.15939815 76.77672698 -53.56417606 70.32585057 -61.3671875 62.10546875 C-68.37956316 53.06319487 -72.23312532 41.45613198 -71 30 C-69.65628286 20.61841121 -66.76711357 13.52021937 -61 6 C-60.49855469 5.34257813 -59.99710937 4.68515625 -59.48046875 4.0078125 C-44.1771359 -13.42636417 -17.68960516 -12.64821684 0 0 Z " fill="#000000" transform="translate(426,92)"/>
<path d="M0 0 C12.27522769 6.16351095 20.55142844 14.88597366 25.25 27.875 C28.05930008 38.68275318 27.10231249 50.85684097 22.25 60.875 C20.47781715 63.78332199 18.51840303 66.33937672 16.25 68.875 C15.486875 69.74125 14.72375 70.6075 13.9375 71.5 C4.33816373 79.98313438 -6.70675803 84.77301487 -19.70703125 84.2578125 C-33.25675987 82.55322533 -42.87075773 76.58808981 -51.8125 66.5625 C-59.69479039 55.62900042 -61.38883283 43.13491981 -59.28515625 29.96484375 C-56.83026118 20.79893375 -51.45961936 11.55087494 -43.75 5.875 C-30.22390357 -1.76020602 -15.20688781 -6.09056354 0 0 Z " fill="#000000" transform="translate(272.75,113.125)"/>
<path d="M0 0 C0.66 0 1.32 0 2 0 C3.83944626 3.95552103 5.67051553 7.91486285 7.5 11.875 C8.02464844 13.00292969 8.54929687 14.13085938 9.08984375 15.29296875 C9.58613281 16.36933594 10.08242188 17.44570313 10.59375 18.5546875 C11.05458984 19.54968262 11.51542969 20.54467773 11.99023438 21.56982422 C13 24 13 24 13 26 C22.57 26.99 32.14 27.98 42 29 C42 32 42 32 39.40234375 34.70703125 C38.25491289 35.75051367 37.09957088 36.78534644 35.9375 37.8125 C35.37611328 38.32103516 34.81472656 38.82957031 34.23632812 39.35351562 C30.22018154 42.97493238 26.11905289 46.49650063 22 50 C22.15146484 50.77190674 22.30292969 51.54381348 22.45898438 52.33911133 C23.14222454 55.82968023 23.82116226 59.32107237 24.5 62.8125 C24.73847656 64.02744141 24.97695313 65.24238281 25.22265625 66.49414062 C25.56103516 68.23920898 25.56103516 68.23920898 25.90625 70.01953125 C26.11572266 71.09307861 26.32519531 72.16662598 26.54101562 73.27270508 C27 76 27 76 27 79 C20.26862289 77.2049661 14.72108003 73.33794234 8.90039062 69.63671875 C8.08634766 69.14300781 7.27230469 68.64929688 6.43359375 68.140625 C5.70197021 67.68204102 4.97034668 67.22345703 4.21655273 66.75097656 C1.96866212 65.75569877 1.96866212 65.75569877 -0.47753906 66.70361328 C-2.93945412 67.96888321 -5.3815146 69.24227757 -7.79296875 70.6015625 C-8.67017578 71.09140625 -9.54738281 71.58125 -10.45117188 72.0859375 C-12.28763142 73.11886407 -14.12356246 74.15273078 -15.95898438 75.1875 C-16.83232422 75.67476563 -17.70566406 76.16203125 -18.60546875 76.6640625 C-19.40106201 77.11217285 -20.19665527 77.5602832 -21.01635742 78.02197266 C-23 79 -23 79 -25 79 C-24.56999673 74.49020963 -23.88469018 70.38549942 -22.5703125 66.046875 C-19.63440319 56.9956492 -19.63440319 56.9956492 -20.96191406 47.97558594 C-23.83006232 44.33346092 -27.44331805 41.72107908 -31.28076172 39.17089844 C-33.64347186 37.5617593 -35.70969358 35.68107087 -37.8125 33.75 C-38.87330124 32.831368 -39.93500767 31.91376986 -41 31 C-40.67 30.34 -40.34 29.68 -40 29 C-37.22436523 28.49755859 -37.22436523 28.49755859 -33.55859375 28.1484375 C-32.25341797 28.01953125 -30.94824219 27.890625 -29.60351562 27.7578125 C-28.21486224 27.63000723 -26.8261901 27.50240573 -25.4375 27.375 C-24.04483881 27.24044024 -22.65225909 27.1050345 -21.25976562 26.96875 C-17.84055675 26.63747717 -14.42074343 26.31496466 -11 26 C-10.74802856 25.18317749 -10.74802856 25.18317749 -10.4909668 24.34985352 C-8.67068307 18.65011676 -6.4199591 13.31744725 -3.8125 7.9375 C-3.44447266 7.16728516 -3.07644531 6.39707031 -2.69726562 5.60351562 C-1.80287378 3.73342358 -0.90211805 1.86637725 0 0 Z " fill="#000000" transform="translate(255,10)"/>
</svg>
