<?xml version="1.0" encoding="UTF-8"?>
<svg version="1.1" xmlns="http://www.w3.org/2000/svg" width="512" height="512">
<path d="M0 0 C4.85045727 4.07879361 7.06365187 7.76095434 7.73723309 14.10801015 C7.75978392 18.00190937 6.54253617 21.38954769 5.27124977 25.03438091 C4.85990254 26.27757513 4.85990254 26.27757513 4.44024526 27.54588438 C3.5343418 30.27162387 2.60558907 32.98898338 1.67666626 35.70695496 C1.03009059 37.63832602 0.38510119 39.57022879 -0.2583822 41.50263232 C-1.58999402 45.49378391 -2.93045295 49.4817917 -4.27843046 53.46744514 C-6.09921575 58.85537835 -7.89309114 64.25180877 -9.67464066 69.65282631 C-12.81689277 79.17396342 -15.97869924 88.68850002 -19.14504313 98.20164931 C-20.43546168 102.07944325 -21.72482973 105.95758619 -23.01421447 109.83572397 C-27.60298672 123.63752299 -32.19568322 137.43801495 -36.7890625 151.23828125 C-37.52392664 153.44619667 -38.25878848 155.65411285 -38.99364805 157.86202979 C-45.86289825 178.50067871 -52.73343523 199.13889903 -59.6068821 219.7761507 C-61.18374039 224.51067318 -62.76058193 229.24520123 -64.33740234 233.97973633 C-64.92506652 235.74424139 -64.92506652 235.74424139 -65.5246027 237.54439303 C-71.90923838 256.71540756 -78.28662306 275.88882643 -84.66121061 295.06318412 C-91.23164536 314.82620451 -97.80884321 334.58696396 -104.39261472 354.34554547 C-108.0792361 365.41006802 -111.76283232 376.47557783 -115.43873978 387.54366493 C-118.55776455 396.93495666 -121.68283117 406.32420946 -124.81593128 415.71081529 C-126.41295798 420.49605783 -128.00703032 425.28223223 -129.59328842 430.07105637 C-131.04458267 434.45220965 -132.50413248 438.83052029 -133.97034113 443.20670404 C-134.49938549 444.79060358 -135.02537958 446.37552587 -135.54802366 447.96154884 C-136.25846131 450.11595207 -136.97990092 452.26636256 -137.70418739 454.41614246 C-138.10213969 455.6117356 -138.50009198 456.80732874 -138.91010344 458.03915197 C-141.24009312 463.73128325 -144.18612135 467.80673785 -149.25 471.3125 C-154.33623625 473.00791208 -159.24062225 473.02204246 -164.25 471.125 C-170.27746355 467.68573163 -173.0632713 461.20692342 -176.25 455.3125 C-176.71535156 454.46010742 -177.18070312 453.60771484 -177.66015625 452.72949219 C-180.4035938 447.70044138 -183.12438775 442.65958299 -185.8359375 437.61328125 C-189.00290142 431.74011702 -192.26288416 425.92444847 -195.5625 420.125 C-200.48137386 411.47263129 -205.32537749 402.78137243 -210.125 394.0625 C-210.46132446 393.45163544 -210.79764893 392.84077087 -211.14416504 392.21139526 C-211.48105347 391.59950348 -211.81794189 390.98761169 -212.16503906 390.35717773 C-212.84569093 389.12092428 -213.52635499 387.88467753 -214.20703125 386.6484375 C-214.54399017 386.03639969 -214.8809491 385.42436188 -215.2281189 384.79377747 C-218.74073842 378.4164047 -222.2746867 372.05092723 -225.8125 365.6875 C-226.42722168 364.58180664 -227.04194336 363.47611328 -227.67529297 362.33691406 C-228.91378823 360.10963851 -230.15239475 357.88242482 -231.39111328 355.65527344 C-234.51258349 350.0420386 -237.63113711 344.42718381 -240.75 338.8125 C-241.99347576 336.57421107 -243.23696535 334.33592983 -244.48046875 332.09765625 C-250.20556641 321.79248047 -250.20556641 321.79248047 -251.19059753 320.01939392 C-251.84592796 318.83981946 -252.50129279 317.66026412 -253.1566925 316.48072815 C-254.75313923 313.60747352 -256.34888693 310.73383448 -257.94360352 307.85961914 C-260.75437233 302.794985 -263.57122453 297.73421426 -266.4140625 292.6875 C-267.12405396 291.42305054 -267.12405396 291.42305054 -267.84838867 290.13305664 C-268.71481014 288.59118973 -269.58454824 287.05117984 -270.45825195 285.51342773 C-273.25 280.53646676 -273.25 280.53646676 -273.25 278.3125 C-274.5635144 277.90874146 -274.5635144 277.90874146 -275.90356445 277.49682617 C-279.10556753 276.36361563 -281.8381836 275.02706363 -284.79296875 273.36328125 C-286.38238281 272.47382812 -286.38238281 272.47382812 -288.00390625 271.56640625 C-289.13699219 270.92574219 -290.27007812 270.28507812 -291.4375 269.625 C-292.64031903 268.94997533 -293.84345002 268.27550629 -295.046875 267.6015625 C-297.5446693 266.20217866 -300.04110956 264.800423 -302.53662109 263.39697266 C-308.26193788 260.17973022 -314.00698796 256.99800789 -319.75 253.8125 C-322.00009227 252.56266609 -324.25009199 251.31266557 -326.5 250.0625 C-327.61375 249.44375 -328.7275 248.825 -329.875 248.1875 C-361.9375 230.375 -361.9375 230.375 -394 212.5625 C-395.6713501 211.63401245 -395.6713501 211.63401245 -397.37646484 210.68676758 C-399.62167421 209.43937488 -401.86679172 208.19181684 -404.11181641 206.9440918 C-409.80936324 203.77782339 -415.50858225 200.61463267 -421.2109375 197.45703125 C-426.83268874 194.3437559 -432.44658025 191.21662204 -438.05810547 188.08496094 C-441.18846883 186.3466683 -444.32948687 184.62906462 -447.47265625 182.9140625 C-449.37790116 181.85991159 -451.28286508 180.80525263 -453.1875 179.75 C-454.05165527 179.2856958 -454.91581055 178.8213916 -455.80615234 178.34301758 C-461.83725518 174.97046595 -465.01283988 172.02398035 -467.25 165.3125 C-467.61826224 159.69650084 -467.46556007 156.13584011 -464.25 151.3125 C-459.84380401 147.12035197 -455.89953876 145.09945317 -450.15406513 143.24948597 C-449.36639098 142.98387696 -448.57871683 142.71826794 -447.76717376 142.44461017 C-445.17161068 141.57276349 -442.57019622 140.71999871 -439.96833801 139.86714172 C-438.12125205 139.25077261 -436.27458112 138.63315851 -434.42830449 138.01436931 C-430.59507337 136.73204712 -426.75940394 135.45745416 -422.92143273 134.18939042 C-417.63595973 132.44254009 -412.35719675 130.67628488 -407.08063316 128.90273094 C-397.57982877 125.71170986 -388.07238601 122.54081711 -378.56366384 119.37347972 C-373.66751011 117.74220183 -368.77194636 116.10915492 -363.876297 114.47636414 C-354.36054953 111.30298689 -344.8442775 108.13118575 -335.32779875 104.96000227 C-327.59789392 102.38412682 -319.86818938 99.80765118 -312.13862038 97.2307682 C-311.02963514 96.86105538 -309.92064989 96.49134255 -308.77805904 96.11042631 C-306.52415042 95.35901685 -304.27024225 94.60760605 -302.01633451 93.85619394 C-281.02940124 86.85960555 -260.04186213 79.86483599 -239.05410556 72.87071774 C-221.05308738 66.87187474 -203.05260057 60.87143954 -185.05249023 54.86987305 C-164.07208786 47.8746234 -143.09136284 40.88034284 -122.11011821 33.88761979 C-119.87681049 33.14329006 -117.64350319 32.39895908 -115.4101963 31.65462685 C-114.31168132 31.28850661 -113.21316634 30.92238637 -112.08136302 30.54517158 C-104.3435592 27.96619137 -96.60598753 25.38651544 -88.86850548 22.80657005 C-79.46729532 19.67190065 -70.06573217 16.53829274 -60.66370835 13.40606459 C-55.8688699 11.80866289 -51.07419459 10.21077598 -46.27994919 8.61159515 C-41.89691897 7.14959541 -37.51343339 5.68896986 -33.12957273 4.22946218 C-31.54038797 3.70010769 -29.95137334 3.17024217 -28.36254235 2.6398268 C-26.21076761 1.92156142 -24.05839115 1.20512928 -21.9058485 0.48916912 C-20.70841178 0.09007766 -19.51097506 -0.30901379 -18.27725238 -0.72019893 C-11.60374572 -2.85259139 -6.38054705 -3.31297635 0 0 Z M-80.8197279 54.92298031 C-81.98567177 55.30764617 -83.15161564 55.69231203 -84.35289115 56.08863443 C-85.65289189 56.52767463 -86.9528366 56.96688074 -88.25273132 57.40623474 C-89.62862329 57.86399386 -91.00477855 58.32096224 -92.38117439 58.7772041 C-96.17385649 60.03694383 -99.96269021 61.30792555 -103.75101244 62.58070624 C-107.83267847 63.94987346 -111.91779142 65.30868185 -116.00250244 66.66873169 C-123.08278754 69.02777643 -130.16084028 71.39341895 -137.23743248 73.76351738 C-147.46908095 77.19029946 -157.70401631 80.6071727 -167.93978927 84.02161229 C-184.54530321 89.56116424 -201.14811974 95.10875548 -217.74926758 100.66137695 C-233.87872292 106.05621136 -250.00943039 111.447275 -266.1418457 116.83325195 C-267.13572706 117.16507119 -268.12960842 117.49689042 -269.15360739 117.83876478 C-274.13947056 119.50332919 -279.12535854 121.16781928 -284.11125886 122.83227241 C-325.49469178 136.647494 -366.8737599 150.47575224 -408.25 164.3125 C-406.96180781 168.17707658 -405.07557914 168.68892291 -401.57861328 170.46923828 C-400.36407471 171.07227783 -400.36407471 171.07227783 -399.125 171.6875 C-391.77644645 175.44330349 -384.54223228 179.34624151 -377.375 183.4375 C-368.61990821 188.42173885 -359.82588846 193.33016126 -351 198.1875 C-348.52859883 199.54809172 -346.05724912 200.90877688 -343.5859375 202.26953125 C-342.97387451 202.60650528 -342.36181152 202.94347931 -341.73120117 203.29066467 C-332.01837751 208.64041123 -322.33166098 214.03729614 -312.64111328 219.42724609 C-309.73290101 221.04403624 -306.82403724 222.65963802 -303.91459656 224.2742157 C-302.72231466 224.93587996 -301.53010435 225.59767326 -300.33796692 226.25959778 C-297.44364293 227.86660889 -294.54840632 229.47190556 -291.65161133 231.07446289 C-286.78794081 233.76904817 -281.93729222 236.47662812 -277.140625 239.2890625 C-276.02337036 239.9389917 -276.02337036 239.9389917 -274.88354492 240.60205078 C-273.55450345 241.37882641 -272.23114539 242.16545728 -270.9152832 242.96435547 C-267.80435026 244.84687122 -267.80435026 244.84687122 -264.28238034 245.08963114 C-261.86650093 244.1658596 -260.61590463 243.05116037 -258.79050827 241.22215176 C-258.12069892 240.55831555 -257.45088956 239.89447934 -256.76078296 239.21052688 C-256.03315415 238.47415955 -255.30552534 237.73779221 -254.55584717 236.97911072 C-253.77655452 236.20238134 -252.99726187 235.42565197 -252.1943543 234.62538534 C-249.57387678 232.00986582 -246.96429463 229.38373658 -244.35449219 226.75756836 C-242.48264565 224.88487599 -240.61021426 223.01278621 -238.73703003 221.14143372 C-234.69971709 217.10569477 -230.66793867 213.06449397 -226.63985443 209.0195446 C-220.81589944 203.17122127 -214.98369022 197.33118734 -209.14942518 191.49315137 C-199.68423425 182.02139256 -190.2257639 172.54295191 -180.77148438 163.06030273 C-171.58684634 153.84813285 -162.39906657 144.63911522 -153.20703125 135.43432617 C-152.64055298 134.86705974 -152.07407472 134.2997933 -151.49043044 133.71533697 C-148.64859106 130.86958251 -145.80668967 128.02388999 -142.96475744 125.17822826 C-119.38354898 101.56591339 -95.81323324 77.94275269 -72.25 54.3125 C-75.9570196 53.0768268 -77.15464448 53.69853117 -80.8197279 54.92298031 Z M-49.25 77.3125 C-73.61682698 101.54209244 -97.96790124 125.78739346 -122.29787895 150.05398698 C-125.16811727 152.91672075 -128.03848607 155.77932366 -130.90893555 158.6418457 C-131.48040528 159.21174157 -132.05187501 159.78163744 -132.64066201 160.36880288 C-141.90277226 169.6047818 -151.17542127 178.83011045 -160.45198572 188.05156895 C-169.96533799 197.50887722 -179.46732805 206.97748916 -188.95879406 216.45676309 C-194.81927511 222.30899786 -200.68851317 228.15216051 -206.56914567 233.98414687 C-210.59699138 237.98035717 -214.61377985 241.987461 -218.6219315 246.00342324 C-220.93728009 248.32262749 -223.25886659 250.63492292 -225.59050179 252.93776894 C-228.11405387 255.43166915 -230.61864213 257.94316151 -233.11915588 260.46012878 C-233.86523985 261.1887357 -234.61132382 261.91734262 -235.38001639 262.66802853 C-236.04335389 263.34331233 -236.7066914 264.01859613 -237.39013004 264.71434307 C-237.97072243 265.29265713 -238.55131481 265.8709712 -239.14950091 266.46680993 C-240.50342293 268.32425214 -240.50342293 268.32425214 -240.00701946 270.87378007 C-239.11475486 273.74818897 -237.88070556 276.13680049 -236.3984375 278.7578125 C-235.80224609 279.82064453 -235.20605469 280.88347656 -234.59179688 281.97851562 C-233.94275391 283.11998047 -233.29371094 284.26144531 -232.625 285.4375 C-231.94524039 286.6447754 -231.26621655 287.85246535 -230.58789062 289.06054688 C-229.17830161 291.56965001 -227.7655652 294.07694078 -226.35058594 296.58300781 C-223.1206714 302.30962515 -219.93777248 308.06235599 -216.75 313.8125 C-215.50022148 316.06262303 -214.25022074 318.31262265 -213 320.5625 C-190.5 361.0625 -190.5 361.0625 -188.62231445 364.44262695 C-187.38159842 366.67572168 -186.14055425 368.90863413 -184.89916992 371.14135742 C-181.97853282 376.39527741 -179.06118594 381.65094248 -176.15567017 386.91323853 C-174.78852301 389.38884876 -173.41948007 391.86340818 -172.05029297 394.33789062 C-171.088973 396.07710521 -170.13038488 397.8178289 -169.171875 399.55859375 C-166.37276901 404.61544017 -163.57647838 409.58279253 -160.25 414.3125 C-158.13309238 411.13713857 -157.15249553 408.38745995 -155.95019531 404.76953125 C-155.72855209 404.10664597 -155.50690887 403.44376068 -155.27854919 402.76078796 C-154.54070787 400.55028668 -153.8093788 398.33768843 -153.078125 396.125 C-152.55436927 394.55066372 -152.03025294 392.97644736 -151.50579834 391.40234375 C-150.39679919 388.07072619 -149.29075269 384.73814835 -148.18701172 381.40478516 C-146.8346549 377.32063446 -145.47778751 373.23800647 -144.11860114 369.15612411 C-139.41074837 355.01346044 -134.71631399 340.86633509 -130.12211609 326.6862793 C-129.86338406 325.88771893 -129.60465203 325.08915855 -129.33807963 324.26639938 C-129.07473159 323.45357624 -128.81138356 322.6407531 -128.54005527 321.80329895 C-120.7047663 297.62275823 -112.6688686 273.51124156 -104.59030342 249.41107178 C-102.25492337 242.44324552 -99.92390467 235.47396462 -97.59373474 228.50439453 C-97.19601807 227.3148819 -96.79830139 226.12536926 -96.3885327 224.89981079 C-95.5778609 222.47519439 -94.76719703 220.05057533 -93.95654094 217.62595367 C-88.5565232 201.47551614 -83.15345199 185.32611249 -77.73999023 169.18017578 C-74.04928066 158.17232795 -70.36488637 147.16238912 -66.68786663 136.14996052 C-64.75178774 130.35239376 -62.81244162 124.55596595 -60.8652668 118.76211548 C-59.04760485 113.35352292 -57.23820451 107.94223999 -55.43528748 102.52871513 C-54.7720325 100.54220931 -54.10566733 98.55673892 -53.43603325 96.57237434 C-52.52606104 93.87433553 -51.62712686 91.1728687 -50.73097229 88.47021484 C-50.4613518 87.67951253 -50.1917313 86.88881021 -49.91394049 86.07414722 C-48.42058033 81.73470661 -48.42058033 81.73470661 -49.25 77.3125 Z " fill="#000000" transform="translate(483.25,23.6875)"/>
</svg>
