<?xml version="1.0" encoding="UTF-8"?>
<svg version="1.1" xmlns="http://www.w3.org/2000/svg" width="512" height="512">
<path d="M0 0 C0.96546438 -0.00445784 1.93092876 -0.00891569 2.92564964 -0.01350862 C4.51258346 -0.01323207 4.51258346 -0.01323207 6.13157654 -0.01294994 C7.25767145 -0.01662663 8.38376637 -0.02030332 9.54398537 -0.02409142 C13.33156916 -0.03513748 17.11912552 -0.03897371 20.90672302 -0.04278088 C23.61687454 -0.04851288 26.32702195 -0.05567887 29.03717041 -0.0626936 C37.18097524 -0.08244674 45.32478129 -0.09252359 53.46860409 -0.10142139 C57.30639667 -0.10580691 61.14418787 -0.11117311 64.98197937 -0.11641026 C77.74499729 -0.13342278 90.50801436 -0.14791544 103.27104187 -0.155159 C106.58238221 -0.15706881 109.89372255 -0.15898915 113.20506287 -0.16094494 C114.43954871 -0.16167055 114.43954871 -0.16167055 115.69897366 -0.16241082 C129.02139993 -0.17070546 142.34373625 -0.19603268 155.66612327 -0.22852562 C169.35301985 -0.26163453 183.03987077 -0.27961129 196.72680759 -0.28280324 C204.40777731 -0.28496499 212.08861591 -0.29366423 219.76954651 -0.31926441 C226.31320303 -0.34102401 232.8566966 -0.34899617 239.4003852 -0.33929763 C242.73569131 -0.3347677 246.07039035 -0.33876543 249.40569496 -0.35605907 C253.03180651 -0.37380399 256.65707496 -0.36665782 260.28318787 -0.35352612 C261.32329797 -0.36449536 262.36340807 -0.37546461 263.43503666 -0.38676625 C277.8957318 -0.26096036 290.53442683 6.00935486 301.04344177 15.73578358 C309.98445988 25.60949782 315.30758303 37.78172201 315.36248779 51.09271717 C315.37322075 52.88440327 315.37322075 52.88440327 315.38417053 54.71228504 C315.38685944 56.01425831 315.38954834 57.31623158 315.39231873 58.65765858 C315.39858838 60.04928219 315.40523562 61.44090415 315.41223145 62.8325243 C315.43320321 67.39141151 315.44362293 71.95029883 315.45359802 76.50922108 C315.45764725 78.08073411 315.46176422 79.65224697 315.4659481 81.22375965 C315.48497953 88.60327868 315.49921848 95.98278779 315.50756007 103.36232662 C315.51734472 111.87703974 315.54370459 120.39149375 315.58406097 128.90611553 C315.61420548 135.49222949 315.6290271 142.07826903 315.63234109 148.66445065 C315.63469219 152.59660963 315.64366118 156.52849113 315.66880226 160.46057606 C315.69206114 164.15756775 315.69632538 167.85409874 315.68604088 171.5511446 C315.68530867 173.55285552 315.70441204 175.55454294 315.72410583 177.55615711 C315.71369011 179.34784321 315.71369011 179.34784321 315.70306396 181.17572498 C315.70545232 182.21177876 315.70784067 183.24783253 315.7103014 184.31528187 C315.08609985 187.87011189 313.66750204 189.53758433 311.21531677 192.13422108 C307.945974 194.42276102 305.14550158 194.60584325 301.21531677 194.13422108 C297.55749497 192.09428199 295.54585503 190.63002846 293.21531677 187.13422108 C292.96477699 184.64060688 292.96477699 184.64060688 292.96376038 181.60846424 C292.95568611 179.8843935 292.95568611 179.8843935 292.94744873 178.12549305 C292.95157272 176.86315845 292.95569672 175.60082386 292.95994568 174.3002367 C292.95719569 172.95805111 292.95351574 171.61586714 292.94897461 170.27368641 C292.94085783 167.3811724 292.93869545 164.48873572 292.94092178 161.59621143 C292.94375616 157.01421273 292.92939563 152.4323681 292.91194153 147.8504076 C292.8649348 134.82003592 292.84099498 121.78967376 292.8344574 108.75922108 C292.83069504 101.56397518 292.81256686 94.36890285 292.77936304 87.17373133 C292.75924125 82.62807141 292.75673395 78.08286208 292.76764321 73.53717613 C292.77026895 70.69365105 292.75615533 67.85038264 292.73756218 65.00692463 C292.72978761 63.08034996 292.74160723 61.15372655 292.75424194 59.22717762 C292.65092447 48.24220309 290.14987244 38.14157083 282.21531677 30.13422108 C274.42202796 24.02428265 267.03239431 22.83745963 257.34880066 22.86679554 C256.25225418 22.86226443 255.15570771 22.85773331 254.02593255 22.85306489 C250.35041105 22.84040149 246.67503736 22.84204255 242.99949646 22.84369373 C240.36461842 22.83770967 237.72975196 22.83096099 235.09487915 22.82333851 C228.67942595 22.80674143 222.26400951 22.80122953 215.84853664 22.80011375 C210.63184535 22.79916259 205.41516616 22.79504886 200.1984787 22.7887125 C185.39878294 22.77110297 170.59911615 22.76187308 155.79940984 22.76337345 C154.6031866 22.76349332 154.6031866 22.76349332 153.38279724 22.76361561 C152.58433798 22.76369737 151.78587872 22.76377913 150.96322373 22.76386337 C138.02755806 22.764676 125.0920089 22.74554333 112.15637693 22.71733887 C98.86492453 22.68858799 85.57352892 22.67479982 72.28204465 22.67652643 C64.82362271 22.67718961 57.36532289 22.67172903 49.90692902 22.65017033 C43.55575766 22.63192938 37.20476378 22.62763492 30.85357752 22.64118917 C27.61577801 22.64770454 24.37838813 22.64570063 21.14060783 22.63048267 C17.62335872 22.61502419 14.10699774 22.62434367 10.58976746 22.63974476 C9.06960152 22.62431407 9.06960152 22.62431407 7.51872516 22.60857165 C-2.04177281 22.70081832 -9.98161543 25.47502609 -17.02687073 32.06390858 C-22.12445284 38.06772751 -24.90583598 45.19465091 -24.9189043 53.00398064 C-24.92336215 54.23690883 -24.92781999 55.46983702 -24.93241292 56.74012667 C-24.93232362 58.11571857 -24.93213376 59.49131047 -24.93185425 60.86690235 C-24.93515289 62.32254492 -24.93887846 63.77818657 -24.94299573 65.23382705 C-24.95302401 69.24390138 -24.95673386 73.25396074 -24.95938504 77.26404583 C-24.9632857 81.58529461 -24.97286429 85.90653151 -24.9815979 90.22777271 C-25.00137029 100.66937348 -25.01143005 111.11097523 -25.02032569 121.55259004 C-25.02470781 126.46902667 -25.03007486 131.38546223 -25.03531456 136.301898 C-25.05232853 152.64462943 -25.06682243 168.98736018 -25.0740633 185.33009911 C-25.07597322 189.57217949 -25.07789355 193.81425986 -25.07984924 198.05634022 C-25.08033298 199.11069824 -25.08081672 200.16505626 -25.08131512 201.25136452 C-25.08961435 218.32901459 -25.11494871 235.4065946 -25.14742992 252.48421407 C-25.18050199 270.01537113 -25.19851225 287.54649259 -25.20170754 305.07768101 C-25.20387263 314.92158472 -25.21262101 324.76538629 -25.23816872 334.60925961 C-25.25987781 342.99349141 -25.26792514 351.37759627 -25.25820193 359.76185299 C-25.25365768 364.03854969 -25.25555062 368.31498447 -25.27496338 372.59164524 C-25.29259927 376.5107771 -25.2915941 380.42945606 -25.27606609 384.34859275 C-25.27369063 385.76253988 -25.27801043 387.1765184 -25.28989474 388.59041757 C-25.37905396 399.90326615 -23.77283055 408.9101523 -15.85499573 417.37640858 C-9.82275563 422.49812186 -2.6874026 425.25370706 5.15435791 425.27225208 C6.39510574 425.27770542 7.63585358 425.28315876 8.91419983 425.28877735 C10.2916717 425.28989713 11.66914363 425.29094765 13.0466156 425.29193592 C14.4954341 425.29660453 15.94425114 425.30174817 17.39306641 425.30733204 C20.51474686 425.31861193 23.63641776 425.32704665 26.75811195 425.33345127 C31.69576192 425.344132 36.63334339 425.36437718 41.57095337 425.38657093 C55.61228802 425.4484923 69.65361872 425.50250244 83.6950531 425.53558826 C91.44874154 425.5539385 99.20231531 425.5828792 106.95591944 425.62359297 C111.05852069 425.64465568 115.16097747 425.6601192 119.26363564 425.66240025 C123.12393365 425.66454907 126.98393083 425.68044211 130.84413719 425.70678997 C132.25904048 425.71397543 133.67398025 425.71608757 135.08889771 425.71268749 C137.02439447 425.70878018 138.95990031 425.72503618 140.89532471 425.74222279 C141.97730039 425.74553293 143.05927607 425.74884308 144.17403889 425.75225353 C147.76288756 426.20299291 150.14473276 427.23907241 153.21531677 429.13422108 C155.30821893 432.71240864 156.23586578 435.1067706 156.15281677 439.25922108 C155.06483205 442.59570755 153.61312654 444.5910895 151.21531677 447.13422108 C148.46853596 448.50761149 146.27135701 448.26650004 143.19566345 448.27466297 C141.911586 448.28037312 140.62750854 448.28608326 139.30451965 448.29196644 C137.87309275 448.2932119 136.44166573 448.29433697 135.01023865 448.29535389 C133.50894549 448.29998126 132.00765351 448.3050058 130.50636292 448.31039906 C126.41916385 448.32353916 122.33198123 448.32997198 118.24476433 448.33440971 C115.68948012 448.33733987 113.13420041 448.34144473 110.57891846 448.34591389 C102.57947609 448.35959751 94.58004399 448.36925804 86.58059072 448.37311578 C77.35620343 448.37758876 68.13196489 448.3950976 58.90762281 448.42411637 C51.7737242 448.44577646 44.63986728 448.45582248 37.50593615 448.4571569 C33.24778561 448.45820249 28.98977475 448.46405701 24.73165894 448.48197651 C20.71957521 448.4985305 16.70773496 448.5005774 12.69562912 448.4918375 C11.22916891 448.49107084 9.76269522 448.49536056 8.29626846 448.50529575 C-8.41507912 448.61180208 -21.2258664 444.19481229 -33.49562073 432.54828358 C-40.10211606 425.581024 -44.0572702 418.31357891 -46.78468323 409.13422108 C-46.96195788 408.54996503 -47.13923254 407.96570897 -47.32187915 407.36374819 C-47.90760938 404.54203273 -47.91282209 401.89966299 -47.91611099 399.01647472 C-47.91995214 397.75368832 -47.92379328 396.49090192 -47.92775083 395.18984926 C-47.92697058 393.78575757 -47.92609179 392.38166592 -47.92512512 390.97757435 C-47.92770875 389.48807054 -47.93072191 387.99856742 -47.93412852 386.50906527 C-47.94220216 382.41003561 -47.9439883 378.31102345 -47.94472599 374.21198678 C-47.94657594 369.79327852 -47.95412304 365.37457936 -47.96086121 360.95587635 C-47.97444817 351.29046202 -47.98046996 341.62505183 -47.98487186 331.95962954 C-47.98763397 325.92448908 -47.99187129 319.88935023 -47.99637604 313.85421085 C-48.00856974 297.14514167 -48.01886849 280.43607377 -48.02225113 263.72700024 C-48.0224707 262.65738107 -48.02269026 261.5877619 -48.02291648 260.48573003 C-48.02313476 259.41354585 -48.02335304 258.34136167 -48.02357793 257.23668706 C-48.0240214 255.06402262 -48.02446796 252.89135818 -48.0249176 250.71869373 C-48.02513903 249.6409763 -48.02536046 248.56325886 -48.0255886 247.45288332 C-48.02953579 229.99378602 -48.04698693 212.53473048 -48.07027712 195.07564931 C-48.09399507 177.15121602 -48.1064532 159.22680369 -48.10761905 141.30235445 C-48.10853562 131.23827473 -48.11428333 121.1742494 -48.13243866 111.11018467 C-48.14784568 102.53934233 -48.15295659 93.96857119 -48.14470056 85.39771764 C-48.14079604 81.02587207 -48.14171391 76.65416985 -48.1557579 72.28234196 C-48.16850881 68.27634575 -48.16728892 64.27060044 -48.15516719 60.26460452 C-48.15321224 58.81906208 -48.1562793 57.37350179 -48.16501155 55.9279844 C-48.21099928 47.7973764 -47.71107409 40.75960772 -44.78468323 33.13422108 C-44.28968323 31.77683826 -44.28968323 31.77683826 -43.78468323 30.39203358 C-37.82415594 17.67934647 -27.05666252 7.72623451 -13.97218323 2.82172108 C-9.21654239 1.19533309 -5.04605302 0.01082892 0 0 Z " fill="#000000" transform="translate(47.78468322753906,-0.13422107696533203)"/>
<path d="M0 0 C0.87269531 0.65097656 1.74539063 1.30195313 2.64453125 1.97265625 C15.64949617 12.15956142 27.19995722 23.99563085 36 38 C36.38881348 38.61423828 36.77762695 39.22847656 37.17822266 39.86132812 C55.75598885 69.71435167 62.780267 108.86347874 54.82958984 143.29980469 C54.25826086 145.54591645 53.63884232 147.77224217 53 150 C52.80164551 150.73605469 52.60329102 151.47210938 52.39892578 152.23046875 C47.38159735 170.52755192 38.3909841 187.64091794 26 202 C25.21496094 202.91136719 24.42992187 203.82273437 23.62109375 204.76171875 C4.12012229 226.83642248 -19.54911067 241.21681614 -48 249 C-49.00933594 249.28593018 -49.00933594 249.28593018 -50.0390625 249.57763672 C-69.37199056 254.79374823 -95.79079523 254.50654768 -115 249 C-115.81291504 248.76893555 -116.62583008 248.53787109 -117.46337891 248.29980469 C-141.12188282 241.36834693 -161.35692644 230.24436003 -179 213 C-180.27617187 211.81664062 -180.27617187 211.81664062 -181.578125 210.609375 C-203.0404378 190.22692699 -215.56417347 161.99256219 -220 133 C-220.13019531 132.18402344 -220.26039063 131.36804688 -220.39453125 130.52734375 C-223.02483075 110.08114901 -220.63114929 88.46254287 -214 69 C-213.65324219 67.96230469 -213.30648437 66.92460937 -212.94921875 65.85546875 C-200.26933039 30.51736063 -174.34703058 3.02048998 -140.6875 -13.1875 C-95.81865172 -34.09304849 -39.95682234 -29.92386841 0 0 Z M-157 24 C-157.81984375 24.68707031 -158.6396875 25.37414062 -159.484375 26.08203125 C-180.88125436 44.52188846 -194.54437081 71.00117589 -198 99 C-200.17302746 131.96711392 -193.35358679 162.75414875 -171.5 188.25 C-150.40590367 211.45350597 -123.19518183 228.12805871 -91.18994141 230.18017578 C-55.94535409 231.75677348 -26.57554995 220.85398574 -0.29296875 197.60546875 C22.05548986 176.38323168 34.53259795 146.90775639 35.40234375 116.27392578 C35.76919766 84.06720984 24.16326154 54.89495526 2.01855469 31.61791992 C-19.81074867 9.33358829 -49.40334428 -3.61763398 -80.79003906 -4.02734375 C-108.71278374 -3.68185685 -135.84638395 5.61316486 -157 24 Z " fill="#000000" transform="translate(455,260)"/>
<path d="M0 0 C0.74121094 0.05285156 1.48242188 0.10570312 2.24609375 0.16015625 C5.68064583 1.31272938 7.80202898 2.80014203 9.5625 5.9375 C10.27589824 10.32878844 10.14293731 14.67491947 10.05078125 19.11328125 C10.04370651 20.39357712 10.03663177 21.67387299 10.02934265 22.9929657 C10.01031714 26.38495312 9.96125838 29.77585774 9.90582275 33.16741943 C9.85453199 36.63294834 9.83180789 40.09865347 9.80664062 43.56445312 C9.7515341 50.35593687 9.66787646 57.14662029 9.5625 63.9375 C10.25296921 63.93083817 10.94343842 63.92417633 11.65483093 63.91731262 C18.84104761 63.85094354 26.02717721 63.80569262 33.21362305 63.77270508 C35.89569554 63.75931298 38.57755492 63.73843923 41.25952148 63.71118164 C45.11448251 63.67479389 48.96911733 63.657772 52.82421875 63.64453125 C54.02334396 63.62904739 55.22246918 63.61356354 56.45793152 63.59761047 C57.57871597 63.59738388 58.69950043 63.59715729 59.85424805 63.59692383 C61.32984444 63.58693108 61.32984444 63.58693108 62.83525085 63.57673645 C66.74737845 64.09423704 69.28259035 65.94606014 72.34765625 68.3203125 C74.47641568 71.15409515 74.02055687 74.07137065 73.92578125 77.48828125 C73.42093014 80.89195483 72.07568492 82.64606669 69.5625 84.9375 C66.92534904 86.25607548 64.9641736 86.05741704 62.01123047 86.05102539 C60.85017792 86.05094986 59.68912537 86.05087433 58.4928894 86.05079651 C57.23453278 86.04563522 55.97617615 86.04047394 54.6796875 86.03515625 C53.39514679 86.0337413 52.11060608 86.03232635 50.78713989 86.03086853 C47.37093158 86.02704911 43.95476574 86.01722373 40.53857422 86.00616455 C37.05306574 85.99593807 33.5675504 85.99136826 30.08203125 85.98632812 C23.24217005 85.97560096 16.40233706 85.95853142 9.5625 85.9375 C9.57138245 86.65302536 9.58026489 87.36855072 9.5894165 88.10575867 C9.66966473 94.85883444 9.73051602 101.61177657 9.76974869 108.36522198 C9.79059712 111.83703184 9.81886295 115.30844673 9.86425781 118.7800293 C9.91615439 122.77396369 9.93546773 126.76748515 9.953125 130.76171875 C9.97377014 132.00459152 9.99441528 133.24746429 10.01568604 134.52799988 C10.01613922 136.26923882 10.01613922 136.26923882 10.01660156 138.0456543 C10.02548401 139.06491501 10.03436646 140.08417572 10.04351807 141.13432312 C9.43355851 144.68891834 8.02824053 146.35692822 5.5625 148.9375 C1.84539437 150.79605282 -2.39027281 150.51658439 -6.4375 149.9375 C-9.78375024 147.41073961 -11.11727847 145.89816458 -12.4375 141.9375 C-12.52576965 140.11217414 -12.55513203 138.28375311 -12.55102539 136.45629883 C-12.55094986 135.33536331 -12.55087433 134.2144278 -12.55079651 133.05952454 C-12.54305458 131.24535286 -12.54305458 131.24535286 -12.53515625 129.39453125 C-12.5337413 128.15579758 -12.53232635 126.9170639 -12.53086853 125.64079285 C-12.52621602 122.35118463 -12.5172339 119.0616254 -12.50616455 115.77203369 C-12.49592629 112.41378377 -12.49136574 109.05552667 -12.48632812 105.69726562 C-12.47529145 99.11065788 -12.45854767 92.52408295 -12.4375 85.9375 C-13.15302536 85.94860306 -13.86855072 85.95970612 -14.60575867 85.97114563 C-21.35879018 86.07145525 -28.11161292 86.14751883 -34.86522198 86.19656086 C-38.33714849 86.22262227 -41.80845792 86.25795387 -45.2800293 86.31469727 C-49.27398499 86.37956834 -53.26729558 86.40370862 -57.26171875 86.42578125 C-58.50459152 86.45158768 -59.74746429 86.4773941 -61.02799988 86.50398254 C-70.63101503 86.50710672 -70.63101503 86.50710672 -73.70800781 83.54736328 C-76.27172664 79.67862326 -76.85866609 76.53792955 -76.4375 71.9375 C-74.42053 67.82885741 -72.68637809 65.58305971 -68.4375 63.9375 C-65.83050537 63.69699097 -65.83050537 63.69699097 -62.84277344 63.71044922 C-61.16148346 63.71067581 -61.16148346 63.71067581 -59.44622803 63.71090698 C-58.24194153 63.72122955 -57.03765503 63.73155212 -55.796875 63.7421875 C-53.94089691 63.74643234 -53.94089691 63.74643234 -52.04742432 63.75076294 C-48.76598459 63.760058 -45.48474246 63.77801295 -42.20336914 63.8001709 C-38.85174378 63.82066952 -35.50010993 63.82960276 -32.1484375 63.83984375 C-25.57804777 63.8618997 -19.00779004 63.89537418 -12.4375 63.9375 C-12.44638245 63.2492514 -12.45526489 62.56100281 -12.4644165 61.85189819 C-12.55298295 54.68178623 -12.61327339 47.51182994 -12.65722656 40.34130859 C-12.67506825 37.66586625 -12.70461049 34.99127984 -12.73925781 32.31591797 C-12.78783506 28.46831429 -12.81048365 24.62129213 -12.828125 20.7734375 C-12.84877014 19.57947357 -12.86941528 18.38550964 -12.89068604 17.15536499 C-12.89239921 10.80046539 -12.8277934 6.71488685 -8.4375 1.9375 C-5.56854256 -0.06792966 -3.45048782 -0.32890265 0 0 Z " fill="#000000" transform="translate(374.4375,298.0625)"/>
<path d="M0 0 C1.33894177 -0.00551503 1.33894177 -0.00551503 2.70493287 -0.01114148 C5.70809476 -0.02219021 8.71122206 -0.02602416 11.71440125 -0.02983093 C13.8627178 -0.0360946 16.01103326 -0.04274132 18.15934753 -0.04974365 C24.00442389 -0.06716038 29.84949207 -0.07770692 35.69458795 -0.08594918 C39.34452154 -0.09109714 42.99445259 -0.09717291 46.64438438 -0.10346031 C58.05886766 -0.12251291 69.47334445 -0.1367448 80.88784057 -0.14507228 C94.07417444 -0.15485073 107.26034072 -0.18118595 120.44661552 -0.22157317 C130.6326742 -0.25170341 140.81868475 -0.26653816 151.00478715 -0.26985329 C157.09157789 -0.27220699 163.1781896 -0.28120926 169.26493263 -0.30631447 C174.98999005 -0.32954648 180.71474993 -0.33384795 186.43984222 -0.32355309 C188.54172186 -0.32305646 190.6436159 -0.32941414 192.74545097 -0.34310913 C195.61402528 -0.36075513 198.4815233 -0.3537577 201.35009766 -0.34057617 C202.18269193 -0.35154542 203.01528619 -0.36251466 203.87311059 -0.37381631 C209.15930902 -0.31513241 212.18305413 0.6252003 216.36552429 4.14717102 C218.83335589 7.84891841 219.04625161 10.85210577 218.36552429 15.14717102 C215.36552429 20.64717102 215.36552429 20.64717102 212.36552429 22.14717102 C209.46688059 22.25190312 206.59189986 22.29496468 203.69271851 22.29434204 C202.78390531 22.29801873 201.87509211 22.30169542 200.93873912 22.30548352 C197.87485916 22.31655031 194.81101308 22.32036925 191.74711609 22.32417297 C189.55791617 22.3304353 187.36871732 22.33708189 185.17951965 22.34408569 C179.21875237 22.36151553 173.25799311 22.3720526 167.29720664 22.38029122 C163.57609463 22.38543657 159.85498513 22.39151248 156.13387489 22.39780235 C145.16766003 22.41576518 134.20144978 22.43014419 123.23522281 22.43797876 C121.22795675 22.43941727 119.22069071 22.44086864 117.21342468 22.44233704 C116.54896014 22.44282078 115.8844956 22.44330452 115.19989578 22.44380292 C104.43334776 22.45210518 93.66691079 22.47744526 82.90041127 22.50991771 C71.84992914 22.54297533 60.79950634 22.56066577 49.7489751 22.56419533 C43.54315428 22.56655031 37.33750894 22.57556905 31.13173485 22.60065651 C25.29506993 22.62387026 19.45869688 22.6281974 13.62199783 22.61789513 C11.47777272 22.61739804 9.33353356 22.62376899 7.18935204 22.63745117 C4.26564179 22.65506621 1.3429908 22.64811506 -1.58071899 22.63491821 C-2.43247202 22.64588746 -3.28422504 22.6568567 -4.16178876 22.66815835 C-8.18831443 22.62417319 -10.15563706 22.45097061 -13.6378355 20.24168682 C-17.13073408 16.57756585 -17.02535745 13.5327038 -16.98994446 8.63154602 C-16.63447571 6.14717102 -16.63447571 6.14717102 -14.32197571 3.08467102 C-9.68970384 -0.25487381 -5.4929904 -0.00120662 0 0 Z " fill="#000000" transform="translate(80.63447570800781,169.8528289794922)"/>
<path d="M0 0 C1.15667679 -0.00860046 2.31335358 -0.01720093 3.50508118 -0.02606201 C5.41811539 -0.03245193 5.41811539 -0.03245193 7.36979675 -0.03897095 C8.72156994 -0.04687141 10.07334102 -0.05514032 11.42510986 -0.06375122 C15.87043746 -0.08997711 20.3157745 -0.10527906 24.76115417 -0.11953735 C26.29087009 -0.12489674 27.82058595 -0.13027424 29.35030174 -0.13566971 C35.7129335 -0.15729896 42.07556271 -0.17603613 48.43822193 -0.1872921 C57.55987949 -0.20353453 66.68111128 -0.23671837 75.80260831 -0.29369295 C82.21456341 -0.33237922 88.62640456 -0.35192318 95.03847331 -0.35721266 C98.8690309 -0.3608679 102.69913445 -0.37290642 106.52956581 -0.4053154 C110.1338448 -0.43537371 113.73739452 -0.44171654 117.34177208 -0.42993164 C119.29344376 -0.42960544 121.24507027 -0.45408607 123.19657898 -0.47930908 C132.73726911 -0.4111934 132.73726911 -0.4111934 135.8263855 2.54998779 C138.3908391 6.41493411 138.97500509 9.55657193 138.55412292 14.15390015 C136.53584675 18.26520346 134.80175333 20.50195463 130.55412292 22.15390015 C127.98317051 22.40837574 127.98317051 22.40837574 125.01959229 22.41459656 C123.89382278 22.42168137 122.76805328 22.42876617 121.60816956 22.43606567 C120.37740692 22.43358826 119.14664429 22.43111084 117.87858582 22.42855835 C116.57905472 22.43366928 115.27952362 22.43878021 113.94061279 22.44404602 C110.37861544 22.457433 106.81672422 22.45801505 103.25470662 22.45548272 C100.28003061 22.45441281 97.30537605 22.45929688 94.33070463 22.46408814 C87.31246901 22.47518226 80.2942869 22.47562126 73.27604675 22.46957397 C66.03805654 22.4635332 58.80026066 22.47584795 51.5623036 22.49714404 C45.34562315 22.51476207 39.12900455 22.5207611 32.91230005 22.5175063 C29.20040155 22.51569362 25.4886417 22.51832795 21.77676582 22.53222084 C17.63740045 22.54713413 13.49843048 22.53782735 9.35905457 22.5262146 C8.13031616 22.53385834 6.90157776 22.54150208 5.63560486 22.54937744 C4.50701553 22.54236313 3.37842621 22.53534882 2.21563721 22.52812195 C0.74810045 22.52837356 0.74810045 22.52837356 -0.74908352 22.52863026 C-4.63421706 21.98877562 -7.18267405 20.13239877 -10.23103333 17.77108765 C-12.35979276 14.937305 -11.90393395 12.0200295 -11.80915833 8.6031189 C-11.30430722 5.19944531 -9.959062 3.44533346 -7.44587708 1.15390015 C-4.83903096 -0.14952291 -2.92047405 0.01612346 0 0 Z " fill="#000000" transform="translate(75.44587707519531,255.84609985351563)"/>
<path d="M0 0 C1.4299379 -0.01073296 1.4299379 -0.01073296 2.88876343 -0.02168274 C3.9381308 -0.02437164 4.98749817 -0.02706055 6.06866455 -0.02983093 C7.17122589 -0.03640213 8.27378723 -0.04297333 9.40975952 -0.04974365 C13.07112693 -0.06951026 16.73245326 -0.0811468 20.39385986 -0.09111023 C21.64224892 -0.09518576 22.89063797 -0.09926128 24.17685699 -0.10346031 C30.10248089 -0.12218123 36.02809168 -0.13674354 41.95373797 -0.14507228 C48.78978539 -0.15483954 55.62550856 -0.18114438 62.46144176 -0.22157317 C68.38490442 -0.25540069 74.30828786 -0.26721974 80.23184967 -0.27127647 C82.75005542 -0.27615312 85.26825745 -0.28779755 87.78639984 -0.30631447 C91.31043906 -0.33061706 94.83362998 -0.32975659 98.35772705 -0.32279968 C99.3989975 -0.33560974 100.44026794 -0.3484198 101.51309204 -0.36161804 C107.4665362 -0.31876001 110.95123972 0.14617465 115.47198486 4.14717102 C117.32925102 7.86170334 117.05699576 12.10296527 116.47198486 16.14717102 C114.28175569 18.9714139 112.6418128 20.56225705 109.47198486 22.14717102 C107.96520613 22.24780288 106.45408516 22.28657652 104.94396973 22.29434204 C103.51403183 22.305075 103.51403183 22.305075 102.0552063 22.31602478 C100.48115524 22.32005814 100.48115524 22.32005814 98.87530518 22.32417297 C97.77274384 22.33074417 96.6701825 22.33731537 95.53421021 22.34408569 C91.87284279 22.3638523 88.21151646 22.37548884 84.55010986 22.38545227 C83.30172081 22.3895278 82.05333176 22.39360332 80.76711273 22.39780235 C74.84148884 22.41652327 68.91587805 22.43108558 62.99023175 22.43941432 C56.15418433 22.44918158 49.31846116 22.47548642 42.48252797 22.51591522 C36.55906531 22.54974273 30.63568186 22.56156178 24.71212006 22.56561852 C22.1939143 22.57049516 19.67571228 22.58213959 17.15756989 22.60065651 C13.63353066 22.62495911 10.11033975 22.62409863 6.58624268 22.61714172 C5.54497223 22.62995178 4.50370178 22.64276184 3.43087769 22.65596008 C-2.52256647 22.61310205 -6.00726999 22.14816739 -10.52801514 18.14717102 C-12.38528129 14.4326387 -12.11302603 10.19137677 -11.52801514 6.14717102 C-8.03480617 1.64276998 -5.56710945 0.02862795 0 0 Z " fill="#000000" transform="translate(75.52801513671875,84.85282897949219)"/>
</svg>
