<?xml version="1.0" encoding="UTF-8"?>
<svg version="1.1" xmlns="http://www.w3.org/2000/svg" width="512" height="512">
<path d="M0 0 C6.8150714 6.14169126 12.86753953 12.47114689 18.375 19.8125 C18.93856201 20.5562085 19.50212402 21.29991699 20.08276367 22.06616211 C23.84842509 27.06646662 27.49719592 32.12393045 30.8125 37.4375 C31.43253906 37.27894531 32.05257813 37.12039062 32.69140625 36.95703125 C48.33257871 34.35343183 65.00558161 35.85023536 78.44921875 44.6953125 C92.99707742 55.41984964 101.95987387 68.77877862 105.8125 86.4375 C107.16821847 103.80378608 105.30936418 119.02590037 94.8125 133.4375 C91.39306057 137.35837447 87.62299804 140.9000472 83.8125 144.4375 C82.80714393 145.43211509 81.80420167 146.42926997 80.8125 147.4375 C81.53953125 147.81519531 82.2665625 148.19289063 83.015625 148.58203125 C91.46543307 153.20775951 98.0274037 158.66228012 104.8125 165.4375 C105.48152344 166.09492188 106.15054687 166.75234375 106.83984375 167.4296875 C118.96216122 180.23921118 125.90005464 198.52924387 126.125 216 C126.15400391 216.75474609 126.18300781 217.50949219 126.21289062 218.28710938 C126.25217653 221.7170713 126.16324937 223.93678652 124.16796875 226.78515625 C105.4307302 239.92918926 77.92085522 243.13736512 55.8125 245.4375 C56.42996094 246.10394531 57.04742187 246.77039063 57.68359375 247.45703125 C62.01006539 252.16544407 66.23934623 256.8907455 70.25 261.875 C73.49010841 265.89365036 76.86175096 269.72322713 80.375 273.5 C93.64979417 287.87068839 102.68498362 301.22395284 102.125 321.33203125 C101.40358182 334.21235175 95.3094585 345.85465341 86.01171875 354.62109375 C75.27642294 363.4877235 62.66490618 367.46784426 48.8125 366.4375 C31.74792715 363.93921266 20.70475758 355.57302546 10.23046875 342.39453125 C7.69676024 339.29595719 5.04153779 336.36251727 2.3125 333.4375 C-1.95731873 328.85052424 -5.94513189 324.10301465 -9.875 319.21875 C-12.38721133 316.19730664 -15.01152457 313.31309922 -17.6875 310.4375 C-21.96764754 305.83761811 -25.97531328 301.08214648 -29.9140625 296.18359375 C-33.17785391 292.24124777 -36.6387981 288.49932614 -40.12109375 284.75 C-42.1875 282.4375 -42.1875 282.4375 -44.1875 279.4375 C-48.53567249 280.12755414 -52.43239094 281.63309929 -56.5 283.25 C-74.36120869 290.12779352 -92.42264993 292.86223817 -111.5 292.8125 C-112.28785889 292.81195618 -113.07571777 292.81141235 -113.88745117 292.81085205 C-127.62298619 292.76746425 -140.79548193 291.67630348 -154.1875 288.4375 C-155.48397461 288.12401611 -155.48397461 288.12401611 -156.80664062 287.80419922 C-186.97949146 280.19256735 -213.26983314 264.35516686 -235.1875 242.4375 C-237.82284559 242.37917693 -237.82284559 242.37917693 -240.8125 242.75 C-241.81539063 242.84925781 -242.81828125 242.94851563 -243.8515625 243.05078125 C-246.19181209 243.32207482 -248.52868604 243.62336992 -250.86230469 243.94677734 C-255.15661231 244.48242178 -259.40230811 244.63161518 -263.7265625 244.67578125 C-264.52159683 244.6855751 -265.31663116 244.69536896 -266.13575745 244.70545959 C-283.17240565 244.87218753 -299.61446849 244.88408704 -316.1875 240.4375 C-317.03747559 240.21787598 -317.88745117 239.99825195 -318.76318359 239.77197266 C-327.85647 237.38060588 -336.66697384 234.4519879 -345.3125 230.75 C-346.31676025 230.32207153 -346.31676025 230.32207153 -347.34130859 229.88549805 C-350.67691504 228.38372844 -352.10764378 227.55728433 -354.1875 224.4375 C-356.02865865 205.34083119 -350.24413407 186.91277932 -338.8125 171.5625 C-337.63022815 170.1650281 -336.42047183 168.79045045 -335.1875 167.4375 C-334.47207031 166.63054687 -333.75664062 165.82359375 -333.01953125 164.9921875 C-327.31990095 158.91134213 -321.16544858 154.53647929 -314.09375 150.25 C-311.19116256 148.59169706 -311.19116256 148.59169706 -309.1875 146.4375 C-309.83976562 145.86902344 -310.49203125 145.30054688 -311.1640625 144.71484375 C-322.99320337 134.2640246 -332.84859603 122.44827394 -334.42041016 106.00024414 C-335.51760096 85.40368532 -331.21177376 70.15559014 -318.28515625 54.0703125 C-309.16109433 44.15536995 -296.10814118 37.1570212 -282.60107422 36.26708984 C-266.06044843 35.67996849 -266.06044843 35.67996849 -259.1875 37.4375 C-258.53265625 36.44492188 -257.8778125 35.45234375 -257.203125 34.4296875 C-250.79756666 24.8445112 -243.96025909 15.950651 -236.1875 7.4375 C-235.40117187 6.56738281 -234.61484375 5.69726562 -233.8046875 4.80078125 C-172.06523175 -60.182612 -64.84245012 -57.7029345 0 0 Z M-228.50048828 23.55078125 C-257.45728969 55.9354645 -267.2592895 99.06447184 -265.1875 141.4375 C-264.73072307 147.24871762 -263.65998277 152.79705034 -262.1875 158.4375 C-261.91341309 159.55898438 -261.91341309 159.55898438 -261.63378906 160.703125 C-254.36814949 189.90884861 -239.27849425 213.44094304 -218.1875 234.4375 C-217.66373779 234.98567383 -217.13997559 235.53384766 -216.6003418 236.09863281 C-212.43372694 240.40766069 -208.05221539 243.97119684 -203.125 247.375 C-202.37895508 247.89223633 -201.63291016 248.40947266 -200.86425781 248.94238281 C-166.41439607 272.55045438 -125.14797331 281.13781403 -84.06640625 273.54296875 C-52.13646817 266.98135428 -21.16916626 249.61549951 -0.1875 224.4375 C0.84503906 223.25414062 0.84503906 223.25414062 1.8984375 222.046875 C17.62401731 203.61759901 27.92952192 181.83214281 33.8125 158.4375 C33.99039062 157.76138672 34.16828125 157.08527344 34.3515625 156.38867188 C43.5779364 120.10559039 34.40628909 77.34427031 15.88793945 45.36865234 C10.64998985 36.66545587 4.74290939 28.85028825 -2.1875 21.4375 C-2.68475586 20.89786621 -3.18201172 20.35823242 -3.69433594 19.80224609 C-31.32122143 -9.92497991 -70.19294134 -25.07187676 -110.38671875 -26.69140625 C-155.74030232 -27.48153837 -197.54480651 -9.47322816 -228.50048828 23.55078125 Z M-308.35546875 68.859375 C-316.76849651 80.12458062 -318.64331886 91.71445749 -317.1875 105.4375 C-315.00288032 116.67463746 -307.67271364 126.38921142 -298.48828125 133.00390625 C-293.26503875 136.25845633 -288.2138603 138.27973247 -282.1875 139.4375 C-282.17348145 138.11866821 -282.17348145 138.11866821 -282.15917969 136.77319336 C-281.80712037 110.29453581 -279.07207904 86.93058107 -270.03808594 61.81201172 C-269.04328007 59.03489292 -268.10470961 56.24113555 -267.1875 53.4375 C-283.80559972 52.62021641 -296.75739849 55.90297219 -308.35546875 68.859375 Z M38.8125 53.4375 C40.31549289 58.01432925 41.85073863 62.57374316 43.49609375 67.1015625 C52.05937578 91.02085958 53.54512591 114.28359079 53.8125 139.4375 C55.72515392 138.83732955 57.63472656 138.22733445 59.54296875 137.61328125 C60.60668701 137.27466064 61.67040527 136.93604004 62.76635742 136.5871582 C67.15575278 134.930537 70.34368026 132.53681503 73.8125 129.4375 C74.40546875 128.95925781 74.9984375 128.48101562 75.609375 127.98828125 C82.28712812 122.12308659 87.67480904 112.27541633 88.8125 103.4375 C89.72178479 89.11626452 86.95162092 78.64014304 78.13671875 67.27734375 C72.2652911 60.75213829 62.58623486 54.76685377 53.8125 53.4375 C51.21876086 53.36851758 48.65439803 53.34315248 46.0625 53.375 C45.36511719 53.37951172 44.66773438 53.38402344 43.94921875 53.38867188 C42.23694197 53.4003998 40.52470967 53.41833347 38.8125 53.4375 Z M-320.52734375 176.546875 C-330.06855706 186.91471326 -337.40901144 201.16008113 -337.1875 215.4375 C-308.31124727 226.95728167 -280.04321343 230.08729266 -249.1875 226.4375 C-250.46885649 222.89674681 -251.97565505 220.17694632 -254.25 217.1875 C-266.83689452 199.38864088 -274.27437718 178.54703488 -279.1875 157.4375 C-294.86999095 157.17026026 -309.66234569 165.78050022 -320.52734375 176.546875 Z M50.8125 157.4375 C50.66216309 157.98986328 50.51182617 158.54222656 50.35693359 159.11132812 C45.862668 175.51217038 41.07503607 190.94583763 32.7956543 205.85644531 C32.23744995 206.86336426 32.23744995 206.86336426 31.66796875 207.890625 C31.16753052 208.77476074 31.16753052 208.77476074 30.65698242 209.67675781 C29.72314384 211.6238072 29.11343343 213.29497302 28.8125 215.4375 C30.61233361 218.03024102 30.61233361 218.03024102 33.125 220.5 C35.61822377 223.10281602 37.81004776 225.43382164 39.8125 228.4375 C41.90795964 228.83256179 41.90795964 228.83256179 44.3125 228.671875 C45.21097656 228.64416016 46.10945313 228.61644531 47.03515625 228.58789062 C47.95167969 228.53826172 48.86820312 228.48863281 49.8125 228.4375 C50.63621094 228.39302734 51.45992188 228.34855469 52.30859375 228.30273438 C71.16291307 227.05080757 91.70727979 223.9901101 108.8125 215.4375 C108.08769139 198.73066151 100.17189979 184.24730206 88.28125 172.75195312 C84.50151918 169.36929509 80.24510781 166.85775825 75.8125 164.4375 C74.79929687 163.84195313 74.79929687 163.84195313 73.765625 163.234375 C66.86379209 159.41269893 58.70985903 157.1487483 50.8125 157.4375 Z M16.8125 229.4375 C15.35847658 231.0751272 13.97401322 232.77484196 12.625 234.5 C3.47691257 245.88784174 -7.40188738 254.6292831 -19.32836914 262.98754883 C-22.71376945 265.36069348 -25.98786325 267.81907067 -29.1875 270.4375 C-28.39988281 271.34628906 -27.61226563 272.25507813 -26.80078125 273.19140625 C-26.02105957 274.09113159 -26.02105957 274.09113159 -25.22558594 275.0090332 C-24.06099594 276.35272753 -22.89627941 277.6963122 -21.73144531 279.03979492 C-18.73341325 282.49798069 -15.73718822 285.95768607 -12.74609375 289.421875 C-8.02327934 294.88788394 -3.29959805 300.34425683 1.5625 305.6875 C4.55113253 308.98042966 7.39633605 312.35066769 10.1875 315.8125 C13.91785968 320.42327674 17.82166914 324.81732959 21.86230469 329.15429688 C24.48466141 331.9704238 26.99303387 334.84179463 29.4375 337.8125 C36.01273026 345.34498335 43.31823249 348.83617893 53.1875 349.75 C62.79128175 348.92208778 71.46531484 345.46496986 77.859375 338.0703125 C84.06924417 329.62796971 85.86380435 321.8440823 84.8125 311.4375 C82.09304846 300.26657932 73.90971856 292.45469479 66.34765625 284.25390625 C63.92897969 281.56690193 61.64046429 278.81663271 59.375 276 C55.71678985 271.46433557 51.86507035 267.1804883 47.89868164 262.91821289 C44.90823 259.68556025 42.07470993 256.37053234 39.3125 252.9375 C35.20949697 247.83826422 30.85333547 243.04412632 26.390625 238.26171875 C24.54129053 236.2358569 22.81876471 234.217517 21.109375 232.08203125 C20.35140625 231.20933594 19.5934375 230.33664062 18.8125 229.4375 C18.1525 229.4375 17.4925 229.4375 16.8125 229.4375 Z " fill="#000000" transform="translate(370.1875,117.5625)"/>
<path d="M0 0 C2.51725196 2.22724597 4.97469395 4.50452054 7.41796875 6.8125 C8.16820312 7.49828125 8.9184375 8.1840625 9.69140625 8.890625 C16.30203681 15.15332763 21.37535019 22.28020148 26.41796875 29.8125 C26.98515625 30.64523438 27.55234375 31.47796875 28.13671875 32.3359375 C45.44509637 59.31122816 51.07622016 95.53507207 44.73046875 126.6875 C44.03762066 129.75318312 43.25619748 132.78363544 42.41796875 135.8125 C42.24136719 136.47846191 42.06476563 137.14442383 41.8828125 137.83056641 C36.5390416 157.47882033 25.28589218 174.15477858 11.41796875 188.8125 C10.65871094 189.63621094 9.89945313 190.45992187 9.1171875 191.30859375 C-12.17813051 213.64950839 -43.54310128 227.05589204 -74.265625 228.08984375 C-111.66491471 228.83671932 -144.14483649 217.77130392 -171.58203125 191.8125 C-172.40574219 191.05324219 -173.22945312 190.29398438 -174.078125 189.51171875 C-190.19374358 174.15034129 -200.81296799 154.18207184 -206.58203125 132.8125 C-206.84886719 131.83289307 -206.84886719 131.83289307 -207.12109375 130.83349609 C-215.49238199 98.25357172 -208.38606774 61.53013744 -191.58203125 32.8125 C-185.96501483 23.49850334 -179.08945145 15.60088652 -171.58203125 7.8125 C-170.9271875 7.09449219 -170.27234375 6.37648437 -169.59765625 5.63671875 C-126.69298744 -40.10992599 -46.3092421 -39.23324596 0 0 Z M-153.58203125 14.8125 C-154.4225 15.50988281 -155.26296875 16.20726562 -156.12890625 16.92578125 C-176.47759162 34.20952488 -189.65184529 61.44082635 -192.58203125 87.8125 C-193.94422 118.5262993 -188.50214523 145.43056155 -168.58203125 169.8125 C-167.56302734 171.06160156 -167.56302734 171.06160156 -166.5234375 172.3359375 C-164.15580968 175.1717621 -164.15580968 175.1717621 -161.58203125 177.8125 C-160.92203125 177.8125 -160.26203125 177.8125 -159.58203125 177.8125 C-159.14503906 176.37970703 -159.14503906 176.37970703 -158.69921875 174.91796875 C-152.10799167 153.8882956 -140.52408763 138.24076669 -121.62109375 126.7578125 C-119.23081915 125.22779097 -117.43012031 123.92650115 -115.58203125 121.8125 C-116.37867188 121.12285156 -117.1753125 120.43320312 -117.99609375 119.72265625 C-124.18829806 114.26933886 -129.53626122 109.10571086 -133.58203125 101.8125 C-133.95714844 101.16925781 -134.33226562 100.52601563 -134.71875 99.86328125 C-135.79996189 97.88172936 -136.71390912 95.89599311 -137.58203125 93.8125 C-137.88238281 93.09578125 -138.18273437 92.3790625 -138.4921875 91.640625 C-143.62988835 76.63375927 -141.63439897 59.11506122 -135.296875 44.9375 C-128.02349261 30.35021498 -115.75915334 20.39416887 -100.58203125 14.8125 C-84.28012551 9.86463724 -66.96592332 11.98523645 -51.89453125 19.5 C-37.56795248 27.82067675 -28.24235766 40.75268773 -23.46875 56.48046875 C-19.60994015 72.7506665 -22.55257288 89.85160384 -30.8125 104.17578125 C-35.38381043 110.98733653 -41.09315448 116.82105633 -47.58203125 121.8125 C-45.18118432 124.45897813 -42.58034811 126.11422204 -39.51953125 127.9375 C-33.59704293 131.65372451 -28.56148387 135.91860498 -23.58203125 140.8125 C-22.95554687 141.42609375 -22.3290625 142.0396875 -21.68359375 142.671875 C-12.29322221 152.61462133 -7.34406214 164.8986055 -3.58203125 177.8125 C7.86919666 173.23723771 16.62586123 155.32995138 21.38818359 144.63330078 C23.37577517 139.78217407 24.97313851 134.84897765 26.41796875 129.8125 C26.92650391 128.10320312 26.92650391 128.10320312 27.4453125 126.359375 C31.61981689 109.50745867 31.27058202 89.46400762 26.41796875 72.8125 C26.07765625 71.60207031 25.73734375 70.39164062 25.38671875 69.14453125 C16.40266787 39.85531132 -2.83716292 14.97252749 -29.95703125 0.4375 C-46.29182766 -8.0072445 -62.78151059 -11.58700737 -81.14453125 -11.5625 C-81.80266815 -11.56228851 -82.46080505 -11.56207703 -83.1388855 -11.56185913 C-109.40630294 -11.47784353 -133.89402575 -2.73156625 -153.58203125 14.8125 Z M-115.61328125 44.1640625 C-124.0963062 55.48674411 -126.07573817 66.98018559 -124.58203125 80.8125 C-122.41143461 91.49851423 -115.67225723 101.72930695 -106.58203125 107.8125 C-95.83243307 114.48687738 -84.20479868 117.39475199 -71.66015625 114.76171875 C-60.671023 111.37293781 -50.84431364 105.98001523 -44.83984375 95.8828125 C-38.43441432 83.59296944 -36.40333647 71.5678523 -40.14453125 58 C-44.4807046 45.57167214 -52.36143192 37.61213783 -63.95703125 31.890625 C-82.52905181 24.26283084 -102.47224417 28.95078495 -115.61328125 44.1640625 Z M-130.578125 155.03515625 C-138.56275097 164.77124856 -143.45831631 176.49361143 -144.96875 189.01953125 C-144.85182412 191.91144143 -144.85182412 191.91144143 -142.73828125 193.68359375 C-115.0202341 210.0290892 -84.62590529 215.87583268 -53.10644531 208.21044922 C-41.68471829 205.05612453 -27.28764869 200.17588186 -18.58203125 191.8125 C-16.72573855 181.38388933 -23.87985285 166.62584386 -29.58984375 158.3671875 C-40.59430926 144.25557878 -55.70525383 135.23191349 -73.58203125 132.8125 C-96.06529742 131.29201304 -115.23183176 137.94701368 -130.578125 155.03515625 Z " fill="#000000" transform="translate(337.58203125,142.1875)"/>
<path d="M0 0 C2.4375 1.625 2.4375 1.625 4 4 C4.727851 8.367106 4.46837297 10.29744055 2 14 C-1.41267596 17.61342161 -5.19510986 20.81158161 -9 24 C-9.82242187 24.73347656 -10.64484375 25.46695313 -11.4921875 26.22265625 C-17.96407935 31.79949923 -17.96407935 31.79949923 -22.875 32.75 C-26.59459221 31.85729787 -27.87791342 31.18312987 -30 28 C-31.1875 24.75 -31.1875 24.75 -31 21 C-29.16620991 17.84369958 -26.6307381 15.50446267 -24 13 C-23.48937012 12.50709473 -22.97874023 12.01418945 -22.45263672 11.50634766 C-8.32891494 -2.08222873 -8.32891494 -2.08222873 0 0 Z " fill="#000000" transform="translate(421,90)"/>
<path d="M0 0 C1.8046875 0.59765625 1.8046875 0.59765625 3.8046875 2.16015625 C6.90609215 9.71983007 3.6034186 17.1984024 0.9921875 24.41015625 C0.45754883 25.96379883 0.45754883 25.96379883 -0.08789062 27.54882812 C-3.52834769 37.26417384 -3.52834769 37.26417384 -8.1953125 39.59765625 C-12.2083449 40.13272724 -13.73459283 39.92817253 -17.0703125 37.53515625 C-19.6355223 33.98913093 -19.76600115 31.77979155 -19.1953125 27.59765625 C-18.17644655 23.46089898 -16.8647599 19.44689205 -15.5078125 15.41015625 C-15.16814453 14.33056641 -14.82847656 13.25097656 -14.47851562 12.13867188 C-11.84693427 4.21441475 -9.26251598 -1.80007386 0 0 Z " fill="#000000" transform="translate(326.1953125,28.40234375)"/>
<path d="M0 0 C1.87809111 3.02581346 1.47248164 5.29946058 1.125 8.8125 C-0.27663973 12.01484225 -2.10262815 14.88287921 -4 17.8125 C-4.474375 18.58078125 -4.94875 19.3490625 -5.4375 20.140625 C-13.39296463 32.78336338 -13.39296463 32.78336338 -18.4375 34.875 C-22.37216555 34.77411114 -24.85049865 33.80167372 -27.6875 31.0625 C-29.30602559 27.99581994 -29.24693517 26.27715696 -28.875 22.8125 C-27.62123969 20.02890851 -25.9986951 17.53957064 -24.3125 15 C-23.85794434 14.2980249 -23.40338867 13.5960498 -22.93505859 12.87280273 C-13.48183982 -1.57044845 -13.48183982 -1.57044845 -9.87109375 -2.95703125 C-6.16940366 -3.38442795 -3.08349577 -1.95288065 0 0 Z " fill="#000000" transform="translate(380.875,55.1875)"/>
</svg>
